<svg width="105" height="20" viewBox="0 0 105 20" fill="none" xmlns="http://www.w3.org/2000/svg">
<path d="M5.1 15H0.74V0.68H5.06C9.38 0.68 12.26 3.56 12.26 7.84C12.26 12.12 9.4 15 5.1 15ZM5 2H2.18V13.68H5.04C8.54 13.68 10.78 11.4 10.78 7.84C10.78 4.26 8.54 2 5 2ZM18.6211 15.24C15.7811 15.24 13.8811 13.2 13.8811 10.16C13.8811 7.14 15.7611 5.06 18.5211 5.06C21.1411 5.06 22.9211 6.92 22.9211 9.66V10.34H15.2211C15.3211 12.7 16.5611 14.06 18.6411 14.06C20.2211 14.06 21.2411 13.38 21.6011 12.1H22.9211C22.4011 14.14 20.9011 15.24 18.6211 15.24ZM18.5211 6.24C16.7011 6.24 15.5011 7.44 15.2611 9.34H21.5411C21.5411 7.48 20.3411 6.24 18.5211 6.24ZM26.5675 15H25.1875V0.419999H26.5675V15ZM30.1825 2.66C29.6225 2.66 29.1625 2.2 29.1625 1.64C29.1625 1.08 29.6225 0.599999 30.1825 0.599999C30.7425 0.599999 31.2225 1.08 31.2225 1.64C31.2225 2.2 30.7425 2.66 30.1825 2.66ZM29.5025 15V5.32H30.8825V15H29.5025ZM36.4603 15L32.5003 5.32H33.9803L36.4803 11.56C36.7403 12.26 37.0003 12.92 37.1803 13.56C37.3603 12.9 37.6203 12.26 37.9003 11.56L40.4403 5.32H41.8603L37.8403 15H36.4603ZM47.1172 15.24C44.2772 15.24 42.3772 13.2 42.3772 10.16C42.3772 7.14 44.2572 5.06 47.0172 5.06C49.6372 5.06 51.4172 6.92 51.4172 9.66V10.34H43.7172C43.8172 12.7 45.0572 14.06 47.1372 14.06C48.7172 14.06 49.7372 13.38 50.0972 12.1H51.4172C50.8972 14.14 49.3972 15.24 47.1172 15.24ZM47.0172 6.24C45.1972 6.24 43.9972 7.44 43.7572 9.34H50.0372C50.0372 7.48 48.8372 6.24 47.0172 6.24ZM58.6836 5.2V6.44H57.9236C56.1436 6.44 55.0036 7.64 55.0036 9.48V15H53.6236V5.32H54.9236L55.0236 6.82C55.4036 5.78 56.4236 5.1 57.7836 5.1C58.0836 5.1 58.3436 5.12 58.6836 5.2ZM59.8311 19.22V18.08H60.8911C61.7311 18.08 62.5711 18.02 63.0511 16.72L63.4711 15.58L59.5511 5.32H61.0111L64.1311 13.76L67.1911 5.32H68.6111L64.1711 17.22C63.6111 18.74 62.6711 19.36 61.2911 19.36C60.7111 19.36 60.2711 19.32 59.8311 19.22ZM83.372 8.7H77.512V15H76.072V0.68H84.512V2H77.512V7.4H83.372V8.7ZM89.9297 15.24C87.0897 15.24 85.1897 13.2 85.1897 10.16C85.1897 7.14 87.0697 5.06 89.8297 5.06C92.4497 5.06 94.2297 6.92 94.2297 9.66V10.34H86.5297C86.6297 12.7 87.8697 14.06 89.9497 14.06C91.5297 14.06 92.5497 13.38 92.9097 12.1H94.2297C93.7097 14.14 92.2097 15.24 89.9297 15.24ZM89.8297 6.24C88.0097 6.24 86.8097 7.44 86.5697 9.34H92.8497C92.8497 7.48 91.6497 6.24 89.8297 6.24ZM100.496 15.24C97.6561 15.24 95.7561 13.2 95.7561 10.16C95.7561 7.14 97.6361 5.06 100.396 5.06C103.016 5.06 104.796 6.92 104.796 9.66V10.34H97.0961C97.1961 12.7 98.4361 14.06 100.516 14.06C102.096 14.06 103.116 13.38 103.476 12.1H104.796C104.276 14.14 102.776 15.24 100.496 15.24ZM100.396 6.24C98.5761 6.24 97.3761 7.44 97.1361 9.34H103.416C103.416 7.48 102.216 6.24 100.396 6.24Z" fill="black" fill-opacity="0.6"/>
</svg>
