<svg width="179" height="24" viewBox="0 0 179 24" fill="none" xmlns="http://www.w3.org/2000/svg">
<path d="M17.952 9.216C17.952 14.544 14.448 18.288 9.408 18.288C4.392 18.288 0.936 14.568 0.936 9.216C0.936 3.888 4.416 0.144 9.432 0.144C14.448 0.144 17.952 3.864 17.952 9.216ZM14.712 9.216C14.712 5.472 12.648 3.096 9.432 3.096C6.216 3.096 4.152 5.472 4.152 9.216C4.152 12.96 6.216 15.336 9.432 15.336C12.648 15.336 14.712 12.912 14.712 9.216ZM27.8192 6.096V8.808H26.7392C24.6272 8.808 23.3072 9.936 23.3072 12.24V18H20.3792V6.168H23.1392L23.3072 7.896C23.8112 6.72 24.9392 5.928 26.5232 5.928C26.9312 5.928 27.3392 5.976 27.8192 6.096ZM34.2746 18.312C30.8426 18.312 28.7066 15.792 28.7066 12.12C28.7066 8.424 30.8666 5.784 34.4426 5.784C36.0986 5.784 37.5626 6.48 38.3066 7.656V0.144H41.2106V18H38.5226L38.3306 16.152C37.6106 17.52 36.0746 18.312 34.2746 18.312ZM34.9226 15.624C36.9626 15.624 38.2826 14.16 38.2826 12.024C38.2826 9.888 36.9626 8.4 34.9226 8.4C32.8826 8.4 31.6346 9.912 31.6346 12.024C31.6346 14.136 32.8826 15.624 34.9226 15.624ZM49.566 18.312C46.038 18.312 43.566 15.744 43.566 12.072C43.566 8.352 45.99 5.784 49.47 5.784C53.022 5.784 55.278 8.16 55.278 11.856V12.744L46.35 12.768C46.566 14.856 47.67 15.912 49.614 15.912C51.222 15.912 52.278 15.288 52.614 14.16H55.326C54.822 16.752 52.662 18.312 49.566 18.312ZM49.494 8.184C47.766 8.184 46.71 9.12 46.422 10.896H52.374C52.374 9.264 51.246 8.184 49.494 8.184ZM65.0614 6.096V8.808H63.9814C61.8694 8.808 60.5494 9.936 60.5494 12.24V18H57.6214V6.168H60.3814L60.5494 7.896C61.0534 6.72 62.1814 5.928 63.7654 5.928C64.1734 5.928 64.5814 5.976 65.0614 6.096ZM72.936 5.352C72.936 2.28 75.48 0.144 79.176 0.144C82.728 0.144 84.984 2.112 85.08 5.28H82.008C81.936 3.768 80.856 2.88 79.128 2.88C77.232 2.88 76.008 3.792 76.008 5.256C76.008 6.504 76.68 7.2 78.144 7.536L80.904 8.136C83.904 8.784 85.368 10.32 85.368 12.936C85.368 16.2 82.824 18.312 78.96 18.312C75.216 18.312 72.768 16.32 72.696 13.176H75.768C75.792 14.664 76.992 15.552 78.96 15.552C81 15.552 82.296 14.664 82.296 13.2C82.296 12.024 81.696 11.328 80.256 11.016L77.472 10.392C74.496 9.744 72.936 8.04 72.936 5.352ZM95.7551 6.144H98.6831V18H95.9711L95.7551 16.416C95.0351 17.544 93.4991 18.312 91.9151 18.312C89.1791 18.312 87.5711 16.464 87.5711 13.56V6.144H90.4991V12.528C90.4991 14.784 91.3871 15.696 93.0191 15.696C94.8671 15.696 95.7551 14.616 95.7551 12.36V6.144ZM104.635 18H101.707V6.144H104.395L104.635 7.536C105.235 6.552 106.435 5.784 108.139 5.784C109.939 5.784 111.187 6.672 111.811 8.04C112.411 6.672 113.803 5.784 115.603 5.784C118.483 5.784 120.067 7.512 120.067 10.248V18H117.163V11.016C117.163 9.312 116.251 8.424 114.859 8.424C113.443 8.424 112.363 9.336 112.363 11.28V18H109.435V10.992C109.435 9.336 108.547 8.448 107.155 8.448C105.763 8.448 104.635 9.36 104.635 11.28V18ZM125.87 18H122.942V6.144H125.63L125.87 7.536C126.47 6.552 127.67 5.784 129.374 5.784C131.174 5.784 132.422 6.672 133.046 8.04C133.646 6.672 135.038 5.784 136.838 5.784C139.718 5.784 141.302 7.512 141.302 10.248V18H138.398V11.016C138.398 9.312 137.486 8.424 136.094 8.424C134.678 8.424 133.598 9.336 133.598 11.28V18H130.67V10.992C130.67 9.336 129.782 8.448 128.39 8.448C126.998 8.448 125.87 9.36 125.87 11.28V18ZM147.704 18.312C145.184 18.312 143.648 16.848 143.648 14.616C143.648 12.432 145.232 11.064 148.04 10.848L151.592 10.584V10.32C151.592 8.712 150.632 8.064 149.144 8.064C147.416 8.064 146.456 8.784 146.456 10.032H143.96C143.96 7.464 146.072 5.784 149.288 5.784C152.48 5.784 154.448 7.512 154.448 10.8V18H151.88L151.664 16.248C151.16 17.472 149.552 18.312 147.704 18.312ZM148.664 16.104C150.464 16.104 151.616 15.024 151.616 13.2V12.576L149.144 12.768C147.32 12.936 146.624 13.536 146.624 14.496C146.624 15.576 147.344 16.104 148.664 16.104ZM164.765 6.096V8.808H163.685C161.573 8.808 160.253 9.936 160.253 12.24V18H157.325V6.168H160.085L160.253 7.896C160.757 6.72 161.885 5.928 163.469 5.928C163.877 5.928 164.285 5.976 164.765 6.096ZM166.066 23.496V21.048H167.818C168.97 21.048 169.69 20.784 170.194 19.392L170.53 18.504L165.754 6.144H168.85L171.898 14.784L175.114 6.144H178.138L172.33 20.64C171.442 22.848 170.194 23.76 168.25 23.76C167.434 23.76 166.714 23.664 166.066 23.496Z" fill="black"/>
</svg>
