<svg width="71" height="16" viewBox="0 0 71 16" fill="none" xmlns="http://www.w3.org/2000/svg">
<path d="M0.88 4.4C0.88 2 2.8 0.419999 5.68 0.419999C8.26 0.419999 9.96 1.86 10.18 4.26H8.72C8.56 2.64 7.46 1.72 5.66 1.72C3.64 1.72 2.32 2.76 2.32 4.38C2.32 5.64 3.06 6.44 4.56 6.82L7.02 7.42C9.26 7.96 10.42 9.24 10.42 11.18C10.42 13.66 8.5 15.24 5.54 15.24C2.76 15.24 0.88 13.78 0.7 11.44H2.18C2.26 12.94 3.58 13.92 5.54 13.92C7.64 13.92 8.98 12.9 8.98 11.26C8.98 9.98 8.26 9.14 6.72 8.78L4.3 8.18C2.06 7.64 0.88 6.36 0.88 4.4ZM19.5095 5.32H20.8895V15H19.6895L19.5095 13.36C18.9695 14.48 17.6295 15.24 16.1095 15.24C13.8295 15.24 12.5895 13.68 12.5895 11.32V5.3H13.9895V10.88C13.9895 13.18 15.0095 14 16.5495 14C18.4095 14 19.5095 12.76 19.5095 10.46V5.32ZM24.9642 15H23.7642V0.419999H25.1442V7.2C25.8242 5.78 27.1442 5.06 28.7842 5.06C31.6042 5.06 33.2442 7.26 33.2442 10.18C33.2442 13.08 31.5642 15.24 28.7442 15.24C27.1242 15.24 25.7842 14.52 25.1042 13.02L24.9642 15ZM25.1642 10.14C25.1642 12.38 26.4042 13.98 28.5242 13.98C30.6242 13.98 31.8442 12.38 31.8442 10.14C31.8442 7.92 30.6242 6.3 28.5242 6.3C26.4042 6.3 25.1642 7.92 25.1642 10.14ZM37.5663 15H36.2063V6.48H34.2663V5.32H36.2063V2.26H37.5663V5.32H39.5063V6.48H37.5663V15ZM40.5256 10.16C40.5256 7.2 42.6056 5.06 45.4456 5.06C48.2856 5.06 50.3656 7.2 50.3656 10.16C50.3656 13.1 48.2856 15.24 45.4456 15.24C42.6056 15.24 40.5256 13.1 40.5256 10.16ZM41.9256 10.14C41.9256 12.42 43.3656 14 45.4456 14C47.5056 14 48.9656 12.42 48.9656 10.14C48.9656 7.9 47.5056 6.3 45.4456 6.3C43.3656 6.3 41.9256 7.9 41.9256 10.14ZM54.6952 15H53.3352V6.48H51.3952V5.32H53.3352V2.26H54.6952V5.32H56.6352V6.48H54.6952V15ZM61.0559 15.24C58.9959 15.24 57.7759 14.08 57.7759 12.38C57.7759 10.6 59.1359 9.48 61.3959 9.3L64.5959 9.04V8.72C64.5959 6.82 63.4559 6.22 62.0359 6.22C60.3559 6.22 59.3559 6.98 59.3559 8.28H58.0959C58.0959 6.32 59.6959 5.06 62.0759 5.06C64.3159 5.06 65.9559 6.18 65.9559 8.74V15H64.7959L64.6159 13.3C64.0159 14.52 62.6959 15.24 61.0559 15.24ZM61.3759 14.12C63.4159 14.12 64.5959 12.7 64.5959 10.6V10.08L61.7359 10.3C59.9159 10.46 59.1759 11.26 59.1759 12.34C59.1759 13.52 60.0559 14.12 61.3759 14.12ZM70.1652 15H68.7852V0.419999H70.1652V15Z" fill="black" fill-opacity="0.6"/>
</svg>
