<svg width="247" height="56" viewBox="0 0 247 56" fill="none" xmlns="http://www.w3.org/2000/svg">
<path d="M3.192 11L0.21 0.976H1.26L3.29 7.864C3.43 8.354 3.556 8.858 3.682 9.516C3.85 8.788 3.99 8.354 4.144 7.864L6.328 0.976H7.378L9.562 7.864C9.716 8.368 9.856 8.872 10.01 9.516C10.164 8.746 10.29 8.256 10.402 7.878L12.474 0.976H13.496L10.486 11H9.534L6.846 2.488L4.158 11H3.192ZM16.7699 11.168C14.7819 11.168 13.4519 9.74 13.4519 7.612C13.4519 5.498 14.7679 4.042 16.6999 4.042C18.5339 4.042 19.7799 5.344 19.7799 7.262V7.738H14.3899C14.4599 9.39 15.3279 10.342 16.7839 10.342C17.8899 10.342 18.6039 9.866 18.8559 8.97H19.7799C19.4159 10.398 18.3659 11.168 16.7699 11.168ZM16.6999 4.868C15.4259 4.868 14.5859 5.708 14.4179 7.038H18.8139C18.8139 5.736 17.9739 4.868 16.6999 4.868ZM26.1732 10.986H25.2072V0.794H26.1732V5.4C26.6072 4.588 27.4332 4.042 28.5672 4.042C30.3452 4.042 31.1432 5.148 31.1432 6.856V11H30.1772V7.066C30.1772 5.484 29.4352 4.924 28.3852 4.924C26.9292 4.924 26.1732 6.002 26.1732 7.304V10.986ZM35.0145 11.168C33.5725 11.168 32.7185 10.356 32.7185 9.166C32.7185 7.92 33.6705 7.136 35.2525 7.01L37.4925 6.828V6.604C37.4925 5.274 36.6945 4.854 35.7005 4.854C34.5245 4.854 33.8245 5.386 33.8245 6.296H32.9425C32.9425 4.924 34.0625 4.042 35.7285 4.042C37.2965 4.042 38.4445 4.826 38.4445 6.618V11H37.6325L37.5065 9.81C37.0865 10.664 36.1625 11.168 35.0145 11.168ZM35.2385 10.384C36.6665 10.384 37.4925 9.39 37.4925 7.92V7.556L35.4905 7.71C34.2165 7.822 33.6985 8.382 33.6985 9.138C33.6985 9.964 34.3145 10.384 35.2385 10.384ZM41.9996 11L39.2276 4.224H40.2636L42.0136 8.592C42.1956 9.082 42.3776 9.544 42.5036 9.992C42.6296 9.53 42.8116 9.082 43.0076 8.592L44.7856 4.224H45.7796L42.9656 11H41.9996ZM49.4594 11.168C47.4714 11.168 46.1414 9.74 46.1414 7.612C46.1414 5.498 47.4574 4.042 49.3894 4.042C51.2234 4.042 52.4694 5.344 52.4694 7.262V7.738H47.0794C47.1494 9.39 48.0174 10.342 49.4734 10.342C50.5794 10.342 51.2934 9.866 51.5454 8.97H52.4694C52.1054 10.398 51.0554 11.168 49.4594 11.168ZM49.3894 4.868C48.1154 4.868 47.2754 5.708 47.1074 7.038H51.5034C51.5034 5.736 50.6634 4.868 49.3894 4.868ZM57.4207 7.626C57.4207 5.498 58.7227 4.042 60.6967 4.042C62.2647 4.042 63.4127 4.952 63.6787 6.352H62.7127C62.4607 5.414 61.6487 4.896 60.7107 4.896C59.3387 4.896 58.3727 5.946 58.3727 7.612C58.3727 9.222 59.2687 10.3 60.6407 10.3C61.6487 10.3 62.4607 9.74 62.7267 8.872H63.7067C63.3847 10.258 62.1807 11.168 60.6407 11.168C58.7227 11.168 57.4207 9.754 57.4207 7.626ZM66.1781 11H65.2121V0.794H66.1781V11ZM67.7566 7.612C67.7566 5.54 69.2126 4.042 71.2006 4.042C73.1886 4.042 74.6446 5.54 74.6446 7.612C74.6446 9.67 73.1886 11.168 71.2006 11.168C69.2126 11.168 67.7566 9.67 67.7566 7.612ZM68.7366 7.598C68.7366 9.194 69.7446 10.3 71.2006 10.3C72.6426 10.3 73.6646 9.194 73.6646 7.598C73.6646 6.03 72.6426 4.91 71.2006 4.91C69.7446 4.91 68.7366 6.03 68.7366 7.598ZM77.6753 11H76.7233V5.036H75.3653V4.224H76.7233V2.082H77.6753V4.224H79.0333V5.036H77.6753V11ZM81.2572 10.986H80.2912V0.794H81.2572V5.4C81.6912 4.588 82.5172 4.042 83.6512 4.042C85.4292 4.042 86.2272 5.148 86.2272 6.856V11H85.2612V7.066C85.2612 5.484 84.5192 4.924 83.4692 4.924C82.0132 4.924 81.2572 6.002 81.2572 7.304V10.986ZM90.9945 11.168C89.0065 11.168 87.6765 9.74 87.6765 7.612C87.6765 5.498 88.9925 4.042 90.9245 4.042C92.7585 4.042 94.0045 5.344 94.0045 7.262V7.738H88.6145C88.6845 9.39 89.5525 10.342 91.0085 10.342C92.1145 10.342 92.8285 9.866 93.0805 8.97H94.0045C93.6405 10.398 92.5905 11.168 90.9945 11.168ZM90.9245 4.868C89.6505 4.868 88.8105 5.708 88.6425 7.038H93.0385C93.0385 5.736 92.1985 4.868 90.9245 4.868ZM94.975 9.096H95.899C95.899 9.88 96.487 10.37 97.439 10.37C98.489 10.37 99.105 9.922 99.105 9.194C99.105 8.634 98.825 8.312 98.027 8.116L96.865 7.822C95.689 7.528 95.115 6.912 95.115 5.988C95.115 4.798 96.109 4.042 97.565 4.042C98.993 4.042 99.917 4.826 99.959 6.086H99.021C98.993 5.302 98.447 4.84 97.537 4.84C96.585 4.84 96.053 5.246 96.053 5.974C96.053 6.492 96.417 6.856 97.159 7.038L98.321 7.332C99.497 7.626 100.029 8.172 100.029 9.152C100.029 10.37 98.993 11.168 97.453 11.168C95.927 11.168 94.975 10.356 94.975 9.096ZM107.056 11H106.104V5.036H104.746V4.224H106.104V2.082H107.056V4.224H108.414V5.036H107.056V11ZM110.638 10.986H109.672V0.794H110.638V5.4C111.072 4.588 111.898 4.042 113.032 4.042C114.81 4.042 115.608 5.148 115.608 6.856V11H114.642V7.066C114.642 5.484 113.9 4.924 112.85 4.924C111.394 4.924 110.638 6.002 110.638 7.304V10.986ZM119.479 11.168C118.037 11.168 117.183 10.356 117.183 9.166C117.183 7.92 118.135 7.136 119.717 7.01L121.957 6.828V6.604C121.957 5.274 121.159 4.854 120.165 4.854C118.989 4.854 118.289 5.386 118.289 6.296H117.407C117.407 4.924 118.527 4.042 120.193 4.042C121.761 4.042 122.909 4.826 122.909 6.618V11H122.097L121.971 9.81C121.551 10.664 120.627 11.168 119.479 11.168ZM119.703 10.384C121.131 10.384 121.957 9.39 121.957 7.92V7.556L119.955 7.71C118.681 7.822 118.163 8.382 118.163 9.138C118.163 9.964 118.779 10.384 119.703 10.384ZM126.279 11H125.327V5.036H123.969V4.224H125.327V2.082H126.279V4.224H127.637V5.036H126.279V11ZM132.204 9.096H133.128C133.128 9.88 133.716 10.37 134.668 10.37C135.718 10.37 136.334 9.922 136.334 9.194C136.334 8.634 136.054 8.312 135.256 8.116L134.094 7.822C132.918 7.528 132.344 6.912 132.344 5.988C132.344 4.798 133.338 4.042 134.794 4.042C136.222 4.042 137.146 4.826 137.188 6.086H136.25C136.222 5.302 135.676 4.84 134.766 4.84C133.814 4.84 133.282 5.246 133.282 5.974C133.282 6.492 133.646 6.856 134.388 7.038L135.55 7.332C136.726 7.626 137.258 8.172 137.258 9.152C137.258 10.37 136.222 11.168 134.682 11.168C133.156 11.168 132.204 10.356 132.204 9.096ZM143.608 4.224H144.574V11H143.734L143.608 9.852C143.23 10.636 142.292 11.168 141.228 11.168C139.632 11.168 138.764 10.076 138.764 8.424V4.21H139.744V8.116C139.744 9.726 140.458 10.3 141.536 10.3C142.838 10.3 143.608 9.432 143.608 7.822V4.224ZM147.062 2.362C146.67 2.362 146.348 2.04 146.348 1.648C146.348 1.256 146.67 0.92 147.062 0.92C147.454 0.92 147.79 1.256 147.79 1.648C147.79 2.04 147.454 2.362 147.062 2.362ZM146.586 11V4.224H147.552V11H146.586ZM151.121 11H150.169V5.036H148.811V4.224H150.169V2.082H151.121V4.224H152.479V5.036H151.121V11ZM153.163 9.096H154.087C154.087 9.88 154.675 10.37 155.627 10.37C156.677 10.37 157.293 9.922 157.293 9.194C157.293 8.634 157.013 8.312 156.215 8.116L155.053 7.822C153.877 7.528 153.303 6.912 153.303 5.988C153.303 4.798 154.297 4.042 155.753 4.042C157.181 4.042 158.105 4.826 158.147 6.086H157.209C157.181 5.302 156.635 4.84 155.725 4.84C154.773 4.84 154.241 5.246 154.241 5.974C154.241 6.492 154.605 6.856 155.347 7.038L156.509 7.332C157.685 7.626 158.217 8.172 158.217 9.152C158.217 10.37 157.181 11.168 155.641 11.168C154.115 11.168 153.163 10.356 153.163 9.096ZM163.004 13.954V13.156H163.746C164.334 13.156 164.922 13.114 165.258 12.204L165.552 11.406L162.808 4.224H163.83L166.014 10.132L168.156 4.224H169.15L166.042 12.554C165.65 13.618 164.992 14.052 164.026 14.052C163.62 14.052 163.312 14.024 163.004 13.954ZM169.571 7.612C169.571 5.54 171.027 4.042 173.015 4.042C175.003 4.042 176.459 5.54 176.459 7.612C176.459 9.67 175.003 11.168 173.015 11.168C171.027 11.168 169.571 9.67 169.571 7.612ZM170.551 7.598C170.551 9.194 171.559 10.3 173.015 10.3C174.457 10.3 175.479 9.194 175.479 7.598C175.479 6.03 174.457 4.91 173.015 4.91C171.559 4.91 170.551 6.03 170.551 7.598ZM182.6 4.224H183.566V11H182.726L182.6 9.852C182.222 10.636 181.284 11.168 180.22 11.168C178.624 11.168 177.756 10.076 177.756 8.424V4.21H178.736V8.116C178.736 9.726 179.45 10.3 180.528 10.3C181.83 10.3 182.6 9.432 182.6 7.822V4.224ZM189.12 4.14V5.008H188.588C187.342 5.008 186.544 5.848 186.544 7.136V11H185.578V4.224H186.488L186.558 5.274C186.824 4.546 187.538 4.07 188.49 4.07C188.7 4.07 188.882 4.084 189.12 4.14ZM193.713 9.096H194.637C194.637 9.88 195.225 10.37 196.177 10.37C197.227 10.37 197.843 9.922 197.843 9.194C197.843 8.634 197.563 8.312 196.765 8.116L195.603 7.822C194.427 7.528 193.853 6.912 193.853 5.988C193.853 4.798 194.847 4.042 196.303 4.042C197.731 4.042 198.655 4.826 198.697 6.086H197.759C197.731 5.302 197.185 4.84 196.275 4.84C195.323 4.84 194.791 5.246 194.791 5.974C194.791 6.492 195.155 6.856 195.897 7.038L197.059 7.332C198.235 7.626 198.767 8.172 198.767 9.152C198.767 10.37 197.731 11.168 196.191 11.168C194.665 11.168 193.713 10.356 193.713 9.096ZM201.912 11H200.96V5.036H199.602V4.224H200.96V2.082H201.912V4.224H203.27V5.036H201.912V11ZM203.842 13.954V13.156H204.584C205.172 13.156 205.76 13.114 206.096 12.204L206.39 11.406L203.646 4.224H204.668L206.852 10.132L208.994 4.224H209.988L206.88 12.554C206.488 13.618 205.83 14.052 204.864 14.052C204.458 14.052 204.15 14.024 203.842 13.954ZM212.125 11H211.159V0.794H212.125V11ZM217.022 11.168C215.034 11.168 213.704 9.74 213.704 7.612C213.704 5.498 215.02 4.042 216.952 4.042C218.786 4.042 220.032 5.344 220.032 7.262V7.738H214.642C214.712 9.39 215.58 10.342 217.036 10.342C218.142 10.342 218.856 9.866 219.108 8.97H220.032C219.668 10.398 218.618 11.168 217.022 11.168ZM216.952 4.868C215.678 4.868 214.838 5.708 214.67 7.038H219.066C219.066 5.736 218.226 4.868 216.952 4.868ZM227.405 11.168C225.963 11.168 225.109 10.356 225.109 9.166C225.109 7.92 226.061 7.136 227.643 7.01L229.883 6.828V6.604C229.883 5.274 229.085 4.854 228.091 4.854C226.915 4.854 226.215 5.386 226.215 6.296H225.333C225.333 4.924 226.453 4.042 228.119 4.042C229.687 4.042 230.835 4.826 230.835 6.618V11H230.023L229.897 9.81C229.477 10.664 228.553 11.168 227.405 11.168ZM227.629 10.384C229.057 10.384 229.883 9.39 229.883 7.92V7.556L227.881 7.71C226.607 7.822 226.089 8.382 226.089 9.138C226.089 9.964 226.705 10.384 227.629 10.384ZM233.74 11H232.774V4.224H233.614L233.754 5.4C234.202 4.532 235.098 4.042 236.078 4.042C237.94 4.042 238.71 5.148 238.71 6.856V11H237.744V7.066C237.744 5.484 237.03 4.924 235.91 4.924C234.524 4.924 233.74 5.932 233.74 7.458V11ZM243.295 11.168C241.321 11.168 240.159 9.656 240.159 7.626C240.159 5.582 241.321 4.042 243.337 4.042C244.457 4.042 245.353 4.532 245.829 5.512V0.794H246.795V11H245.955L245.857 9.614C245.381 10.664 244.429 11.168 243.295 11.168ZM243.463 10.286C244.947 10.286 245.815 9.166 245.815 7.598C245.815 6.044 244.947 4.91 243.463 4.91C241.993 4.91 241.139 6.044 241.139 7.598C241.139 9.166 241.993 10.286 243.463 10.286ZM2.436 33L0.196 26.224H1.19L2.52 30.312C2.674 30.76 2.8 31.222 2.94 31.768C3.052 31.222 3.276 30.536 3.346 30.312L4.69 26.224H5.684L7.014 30.312C7.14 30.676 7.308 31.264 7.434 31.768C7.574 31.208 7.602 31.04 7.84 30.312L9.184 26.224H10.192L7.896 33H6.958L5.558 28.744C5.39 28.24 5.278 27.82 5.194 27.414C5.096 27.778 4.984 28.184 4.802 28.744L3.402 33H2.436ZM12.3646 32.986H11.3986V22.794H12.3646V27.4C12.7986 26.588 13.6246 26.042 14.7586 26.042C16.5366 26.042 17.3346 27.148 17.3346 28.856V33H16.3686V29.066C16.3686 27.484 15.6266 26.924 14.5766 26.924C13.1206 26.924 12.3646 28.002 12.3646 29.304V32.986ZM19.736 24.362C19.344 24.362 19.022 24.04 19.022 23.648C19.022 23.256 19.344 22.92 19.736 22.92C20.128 22.92 20.464 23.256 20.464 23.648C20.464 24.04 20.128 24.362 19.736 24.362ZM19.26 33V26.224H20.226V33H19.26ZM21.7644 29.626C21.7644 27.498 23.0664 26.042 25.0404 26.042C26.6084 26.042 27.7564 26.952 28.0224 28.352H27.0564C26.8044 27.414 25.9924 26.896 25.0544 26.896C23.6824 26.896 22.7164 27.946 22.7164 29.612C22.7164 31.222 23.6124 32.3 24.9844 32.3C25.9924 32.3 26.8044 31.74 27.0704 30.872H28.0504C27.7284 32.258 26.5244 33.168 24.9844 33.168C23.0664 33.168 21.7644 31.754 21.7644 29.626ZM30.4799 32.986H29.5139V22.794H30.4799V27.4C30.9139 26.588 31.7399 26.042 32.8739 26.042C34.6519 26.042 35.4499 27.148 35.4499 28.856V33H34.4839V29.066C34.4839 27.484 33.7419 26.924 32.6919 26.924C31.2359 26.924 30.4799 28.002 30.4799 29.304V32.986ZM40.572 35.954V35.156H41.314C41.902 35.156 42.49 35.114 42.826 34.204L43.12 33.406L40.376 26.224H41.398L43.582 32.132L45.724 26.224H46.718L43.61 34.554C43.218 35.618 42.56 36.052 41.594 36.052C41.188 36.052 40.88 36.024 40.572 35.954ZM47.1394 29.612C47.1394 27.54 48.5954 26.042 50.5834 26.042C52.5714 26.042 54.0274 27.54 54.0274 29.612C54.0274 31.67 52.5714 33.168 50.5834 33.168C48.5954 33.168 47.1394 31.67 47.1394 29.612ZM48.1194 29.598C48.1194 31.194 49.1274 32.3 50.5834 32.3C52.0254 32.3 53.0474 31.194 53.0474 29.598C53.0474 28.03 52.0254 26.91 50.5834 26.91C49.1274 26.91 48.1194 28.03 48.1194 29.598ZM60.1684 26.224H61.1344V33H60.2944L60.1684 31.852C59.7904 32.636 58.8524 33.168 57.7884 33.168C56.1924 33.168 55.3244 32.076 55.3244 30.424V26.21H56.3044V30.116C56.3044 31.726 57.0184 32.3 58.0964 32.3C59.3984 32.3 60.1684 31.432 60.1684 29.822V26.224ZM64.2908 23.872C64.2908 24.754 63.6468 25.496 62.7788 25.622V25.104C63.2688 25.006 63.6328 24.656 63.6328 24.264C63.5488 24.32 63.4228 24.348 63.2548 24.348C62.8908 24.348 62.5688 24.082 62.5688 23.606C62.5688 23.13 62.9048 22.78 63.3948 22.78C63.8708 22.78 64.2908 23.186 64.2908 23.872ZM69.6965 26.14V27.008H69.1645C67.9185 27.008 67.1205 27.848 67.1205 29.136V33H66.1545V26.224H67.0645L67.1345 27.274C67.4005 26.546 68.1145 26.07 69.0665 26.07C69.2765 26.07 69.4585 26.084 69.6965 26.14ZM73.5629 33.168C71.5749 33.168 70.2449 31.74 70.2449 29.612C70.2449 27.498 71.5609 26.042 73.4929 26.042C75.3269 26.042 76.5729 27.344 76.5729 29.262V29.738H71.1829C71.2529 31.39 72.1209 32.342 73.5769 32.342C74.6829 32.342 75.3969 31.866 75.6489 30.97H76.5729C76.2089 32.398 75.1589 33.168 73.5629 33.168ZM73.4929 26.868C72.2189 26.868 71.3789 27.708 71.2109 29.038H75.6069C75.6069 27.736 74.7669 26.868 73.4929 26.868ZM82.0002 35.954V26.224H82.8402L82.9382 27.596C83.4142 26.546 84.3662 26.042 85.5002 26.042C87.4602 26.042 88.6362 27.54 88.6362 29.584C88.6362 31.628 87.5022 33.168 85.5002 33.168C84.3522 33.168 83.4422 32.678 82.9662 31.698V35.954H82.0002ZM82.9802 29.612C82.9802 31.166 83.8482 32.3 85.3322 32.3C86.8022 32.3 87.6562 31.166 87.6562 29.612C87.6562 28.044 86.8022 26.924 85.3322 26.924C83.8482 26.924 82.9802 28.044 82.9802 29.612ZM93.718 26.14V27.008H93.186C91.94 27.008 91.142 27.848 91.142 29.136V33H90.176V26.224H91.086L91.156 27.274C91.422 26.546 92.136 26.07 93.088 26.07C93.298 26.07 93.48 26.084 93.718 26.14ZM94.2664 29.612C94.2664 27.54 95.7224 26.042 97.7104 26.042C99.6984 26.042 101.154 27.54 101.154 29.612C101.154 31.67 99.6984 33.168 97.7104 33.168C95.7224 33.168 94.2664 31.67 94.2664 29.612ZM95.2464 29.598C95.2464 31.194 96.2544 32.3 97.7104 32.3C99.1524 32.3 100.174 31.194 100.174 29.598C100.174 28.03 99.1524 26.91 97.7104 26.91C96.2544 26.91 95.2464 28.03 95.2464 29.598ZM107.295 26.224H108.261V33H107.421L107.295 31.852C106.917 32.636 105.979 33.168 104.915 33.168C103.319 33.168 102.451 32.076 102.451 30.424V26.21H103.431V30.116C103.431 31.726 104.145 32.3 105.223 32.3C106.525 32.3 107.295 31.432 107.295 29.822V26.224ZM112.797 33.168C110.823 33.168 109.661 31.656 109.661 29.626C109.661 27.582 110.823 26.042 112.839 26.042C113.959 26.042 114.855 26.532 115.331 27.512V22.794H116.297V33H115.457L115.359 31.614C114.883 32.664 113.931 33.168 112.797 33.168ZM112.965 32.286C114.449 32.286 115.317 31.166 115.317 29.598C115.317 28.044 114.449 26.91 112.965 26.91C111.495 26.91 110.641 28.044 110.641 29.598C110.641 31.166 111.495 32.286 112.965 32.286ZM123.75 33H122.798V27.036H121.44V26.224H122.798V24.082H123.75V26.224H125.108V27.036H123.75V33ZM125.821 29.612C125.821 27.54 127.277 26.042 129.265 26.042C131.253 26.042 132.709 27.54 132.709 29.612C132.709 31.67 131.253 33.168 129.265 33.168C127.277 33.168 125.821 31.67 125.821 29.612ZM126.801 29.598C126.801 31.194 127.809 32.3 129.265 32.3C130.707 32.3 131.729 31.194 131.729 29.598C131.729 28.03 130.707 26.91 129.265 26.91C127.809 26.91 126.801 28.03 126.801 29.598ZM139.565 33L137.325 26.224H138.319L139.649 30.312C139.803 30.76 139.929 31.222 140.069 31.768C140.181 31.222 140.405 30.536 140.475 30.312L141.819 26.224H142.813L144.143 30.312C144.269 30.676 144.437 31.264 144.563 31.768C144.703 31.208 144.731 31.04 144.969 30.312L146.313 26.224H147.321L145.025 33H144.087L142.687 28.744C142.519 28.24 142.407 27.82 142.323 27.414C142.225 27.778 142.113 28.184 141.931 28.744L140.531 33H139.565ZM151.069 33.168C149.081 33.168 147.751 31.74 147.751 29.612C147.751 27.498 149.067 26.042 150.999 26.042C152.833 26.042 154.079 27.344 154.079 29.262V29.738H148.689C148.759 31.39 149.627 32.342 151.083 32.342C152.189 32.342 152.903 31.866 153.155 30.97H154.079C153.715 32.398 152.665 33.168 151.069 33.168ZM150.999 26.868C149.725 26.868 148.885 27.708 148.717 29.038H153.113C153.113 27.736 152.273 26.868 150.999 26.868ZM157.501 33.168C156.059 33.168 155.205 32.356 155.205 31.166C155.205 29.92 156.157 29.136 157.739 29.01L159.979 28.828V28.604C159.979 27.274 159.181 26.854 158.187 26.854C157.011 26.854 156.311 27.386 156.311 28.296H155.429C155.429 26.924 156.549 26.042 158.215 26.042C159.783 26.042 160.931 26.826 160.931 28.618V33H160.119L159.993 31.81C159.573 32.664 158.649 33.168 157.501 33.168ZM157.725 32.384C159.153 32.384 159.979 31.39 159.979 29.92V29.556L157.977 29.71C156.703 29.822 156.185 30.382 156.185 31.138C156.185 31.964 156.801 32.384 157.725 32.384ZM166.411 26.14V27.008H165.879C164.633 27.008 163.835 27.848 163.835 29.136V33H162.869V26.224H163.779L163.849 27.274C164.115 26.546 164.829 26.07 165.781 26.07C165.991 26.07 166.173 26.084 166.411 26.14ZM167.482 33.154C167.006 33.154 166.6 32.762 166.6 32.3C166.6 31.824 167.006 31.418 167.482 31.418C167.958 31.418 168.364 31.824 168.364 32.3C168.364 32.762 167.958 33.154 167.482 33.154ZM179.523 28.59H175.421V33H174.413V22.976H180.321V23.9H175.421V27.68H179.523V28.59ZM184.923 26.14V27.008H184.391C183.145 27.008 182.347 27.848 182.347 29.136V33H181.381V26.224H182.291L182.361 27.274C182.627 26.546 183.341 26.07 184.293 26.07C184.503 26.07 184.685 26.084 184.923 26.14ZM185.471 29.612C185.471 27.54 186.927 26.042 188.915 26.042C190.903 26.042 192.359 27.54 192.359 29.612C192.359 31.67 190.903 33.168 188.915 33.168C186.927 33.168 185.471 31.67 185.471 29.612ZM186.451 29.598C186.451 31.194 187.459 32.3 188.915 32.3C190.357 32.3 191.379 31.194 191.379 29.598C191.379 28.03 190.357 26.91 188.915 26.91C187.459 26.91 186.451 28.03 186.451 29.598ZM194.87 33H193.904V26.224H194.744L194.856 27.19C195.192 26.476 195.948 26.042 196.9 26.042C197.964 26.042 198.762 26.602 199.084 27.484C199.392 26.602 200.218 26.042 201.31 26.042C202.78 26.042 203.746 26.994 203.746 28.562V33H202.808V28.758C202.808 27.596 202.164 26.91 201.128 26.91C199.994 26.91 199.322 27.764 199.322 28.814V33H198.37V28.744C198.37 27.596 197.712 26.924 196.69 26.924C195.556 26.924 194.87 27.764 194.87 28.8V33ZM2.436 55L0.196 48.224H1.19L2.52 52.312C2.674 52.76 2.8 53.222 2.94 53.768C3.052 53.222 3.276 52.536 3.346 52.312L4.69 48.224H5.684L7.014 52.312C7.14 52.676 7.308 53.264 7.434 53.768C7.574 53.208 7.602 53.04 7.84 52.312L9.184 48.224H10.192L7.896 55H6.958L5.558 50.744C5.39 50.24 5.278 49.82 5.194 49.414C5.096 49.778 4.984 50.184 4.802 50.744L3.402 55H2.436ZM10.6218 51.612C10.6218 49.54 12.0778 48.042 14.0658 48.042C16.0538 48.042 17.5098 49.54 17.5098 51.612C17.5098 53.67 16.0538 55.168 14.0658 55.168C12.0778 55.168 10.6218 53.67 10.6218 51.612ZM11.6018 51.598C11.6018 53.194 12.6098 54.3 14.0658 54.3C15.5078 54.3 16.5298 53.194 16.5298 51.598C16.5298 50.03 15.5078 48.91 14.0658 48.91C12.6098 48.91 11.6018 50.03 11.6018 51.598ZM20.0209 55H19.0549V48.224H19.8949L20.0069 49.19C20.3429 48.476 21.0989 48.042 22.0509 48.042C23.1149 48.042 23.9129 48.602 24.2349 49.484C24.5429 48.602 25.3689 48.042 26.4609 48.042C27.9309 48.042 28.8969 48.994 28.8969 50.562V55H27.9589V50.758C27.9589 49.596 27.3149 48.91 26.2789 48.91C25.1449 48.91 24.4729 49.764 24.4729 50.814V55H23.5209V50.744C23.5209 49.596 22.8629 48.924 21.8409 48.924C20.7069 48.924 20.0209 49.764 20.0209 50.8V55ZM33.682 55.168C31.694 55.168 30.364 53.74 30.364 51.612C30.364 49.498 31.68 48.042 33.612 48.042C35.446 48.042 36.692 49.344 36.692 51.262V51.738H31.302C31.372 53.39 32.24 54.342 33.696 54.342C34.802 54.342 35.516 53.866 35.768 52.97H36.692C36.328 54.398 35.278 55.168 33.682 55.168ZM33.612 48.868C32.338 48.868 31.498 49.708 31.33 51.038H35.726C35.726 49.736 34.886 48.868 33.612 48.868ZM39.2025 55H38.2365V48.224H39.0765L39.2165 49.4C39.6645 48.532 40.5605 48.042 41.5405 48.042C43.4025 48.042 44.1725 49.148 44.1725 50.856V55H43.2065V51.066C43.2065 49.484 42.4925 48.924 41.3725 48.924C39.9865 48.924 39.2025 49.932 39.2025 51.458V55ZM51.5347 55H50.5827V49.036H49.2247V48.224H50.5827V46.082H51.5347V48.224H52.8927V49.036H51.5347V55ZM53.6062 51.612C53.6062 49.54 55.0622 48.042 57.0502 48.042C59.0382 48.042 60.4942 49.54 60.4942 51.612C60.4942 53.67 59.0382 55.168 57.0502 55.168C55.0622 55.168 53.6062 53.67 53.6062 51.612ZM54.5862 51.598C54.5862 53.194 55.5942 54.3 57.0502 54.3C58.4922 54.3 59.5142 53.194 59.5142 51.598C59.5142 50.03 58.4922 48.91 57.0502 48.91C55.5942 48.91 54.5862 50.03 54.5862 51.598ZM66.8881 55H65.9221V48.224H66.7621L66.8741 49.19C67.2101 48.476 67.9661 48.042 68.9181 48.042C69.9821 48.042 70.7801 48.602 71.1021 49.484C71.4101 48.602 72.2361 48.042 73.3281 48.042C74.7981 48.042 75.7641 48.994 75.7641 50.562V55H74.8261V50.758C74.8261 49.596 74.1821 48.91 73.1461 48.91C72.0121 48.91 71.3401 49.764 71.3401 50.814V55H70.3881V50.744C70.3881 49.596 69.7301 48.924 68.7081 48.924C67.5741 48.924 66.8881 49.764 66.8881 50.8V55ZM80.5492 55.168C78.5612 55.168 77.2312 53.74 77.2312 51.612C77.2312 49.498 78.5472 48.042 80.4792 48.042C82.3132 48.042 83.5592 49.344 83.5592 51.262V51.738H78.1692C78.2392 53.39 79.1072 54.342 80.5632 54.342C81.6692 54.342 82.3832 53.866 82.6352 52.97H83.5592C83.1952 54.398 82.1452 55.168 80.5492 55.168ZM80.4792 48.868C79.2052 48.868 78.3652 49.708 78.1972 51.038H82.5932C82.5932 49.736 81.7532 48.868 80.4792 48.868ZM86.0697 55H85.1037V48.224H85.9437L86.0837 49.4C86.5317 48.532 87.4277 48.042 88.4077 48.042C90.2697 48.042 91.0397 49.148 91.0397 50.856V55H90.0737V51.066C90.0737 49.484 89.3597 48.924 88.2397 48.924C86.8537 48.924 86.0697 49.932 86.0697 51.458V55ZM93.791 55.154C93.315 55.154 92.909 54.762 92.909 54.3C92.909 53.824 93.315 53.418 93.791 53.418C94.267 53.418 94.673 53.824 94.673 54.3C94.673 54.762 94.267 55.154 93.791 55.154Z" fill="black" fill-opacity="0.6"/>
</svg>
